<svg width="48" height="48" viewBox="0 0 48 48" fill="none" xmlns="http://www.w3.org/2000/svg">
<path fill-rule="evenodd" clip-rule="evenodd" d="M24 0C37.2558 0 48 10.7442 48 24C48 37.2558 37.2558 48 24 48C10.7442 48 0 37.2558 0 24C0 10.7442 10.7442 0 24 0Z" fill="#1E2026"/>
<path d="M14.0911 24.0001L14.107 29.8174L19.0499 32.726V36.1318L11.2142 31.5361V22.2989L14.0911 24.0001ZM14.0911 18.1827V21.5727L11.2124 19.8698V16.4799L14.0911 14.777L16.9839 16.4799L14.0911 18.1827ZM21.1142 16.4799L23.9929 14.777L26.8856 16.4799L23.9929 18.1827L21.1142 16.4799Z" fill="#F0B90B"/>
<path d="M16.1714 28.6116V25.2058L19.0501 26.9087V30.2986L16.1714 28.6116ZM21.1143 33.9459L23.993 35.6488L26.8858 33.9459V37.3358L23.993 39.0387L21.1143 37.3358V33.9459ZM31.0143 16.4799L33.893 14.777L36.7858 16.4799V19.8698L33.893 21.5727V18.1827L31.0143 16.4799ZM33.893 29.8174L33.9089 24.0001L36.7876 22.2972V31.5344L28.9518 36.13V32.7243L33.893 29.8174Z" fill="#F0B90B"/>
<path d="M31.8289 28.6116L28.9502 30.2986V26.9087L31.8289 25.2058V28.6116Z" fill="#F0B90B"/>
<path d="M31.8288 19.3885L31.8446 22.7943L26.8876 25.7029V31.5343L24.0089 33.2214L21.1302 31.5343V25.7029L16.1731 22.7943V19.3885L19.0642 17.6856L23.9913 20.6084L28.9483 17.6856L31.8411 19.3885H31.8288ZM16.1714 13.573L23.993 8.96143L31.8288 13.573L28.9501 15.2758L23.993 12.3531L19.0501 15.2758L16.1714 13.573Z" fill="#F0B90B"/>
</svg>
