<svg width="48" height="48" viewBox="0 0 48 48" fill="none" xmlns="http://www.w3.org/2000/svg">
<circle cx="24" cy="24" r="24" fill="url(#paint0_linear_43_643)"/>
<path fill-rule="evenodd" clip-rule="evenodd" d="M41.1816 24.2923H36.9507C36.9507 15.6701 29.9366 8.68079 21.2836 8.68079C12.7378 8.68079 5.79 15.499 5.61995 23.9735C5.44403 32.7335 13.6917 40.3404 22.484 40.3404H23.59C31.3414 40.3404 41.7307 34.294 43.354 26.9268C43.6537 25.5688 42.5772 24.2923 41.1816 24.2923ZM14.9963 24.6765C14.9963 25.8295 14.0499 26.7725 12.8928 26.7725C11.7356 26.7725 10.7893 25.829 10.7893 24.6765V21.2855C10.7893 20.1326 11.7356 19.1895 12.8928 19.1895C14.0499 19.1895 14.9963 20.1326 14.9963 21.2855V24.6765ZM20.1971 26.7725C21.3542 26.7725 22.3005 25.8295 22.3005 24.6765V21.2855C22.3005 20.1326 21.3542 19.1895 20.1971 19.1895C19.0403 19.1895 18.0936 20.1326 18.0936 21.2855V24.6765C18.0936 25.829 19.0399 26.7725 20.1971 26.7725Z" fill="url(#paint1_linear_43_643)"/>
<defs>
<linearGradient id="paint0_linear_43_643" x1="0" y1="0" x2="0" y2="48" gradientUnits="userSpaceOnUse">
<stop stop-color="#534BB1"/>
<stop offset="1" stop-color="#551BF9"/>
</linearGradient>
<linearGradient id="paint1_linear_43_643" x1="5.61714" y1="8.68079" x2="5.61714" y2="40.3404" gradientUnits="userSpaceOnUse">
<stop stop-color="white"/>
<stop offset="1" stop-color="white" stop-opacity="0.82"/>
</linearGradient>
</defs>
</svg>
