<svg width="48" height="48" viewBox="0 0 48 48" fill="none" xmlns="http://www.w3.org/2000/svg">
  <circle cx="24" cy="24" r="24" fill="#D5FF5C" />
  <path fill-rule="evenodd" clip-rule="evenodd" d="M33.0759 25.832C33.3801 26.494 34.2767 26.728 34.7921 26.212L35.7367 25.268C36.2066 24.8025 36.8418 24.5419 37.5034 24.5432C38.165 24.5446 38.7991 24.8078 39.267 25.2752C39.7349 25.7427 39.9984 26.3763 40 27.0374C40.0015 27.6986 39.7409 28.3334 39.2752 28.803L31.6339 36.439C30.6955 37.5555 29.5238 38.453 28.201 39.0682C26.8782 39.6834 25.4366 40.0015 23.9775 40C22.4567 40.0015 20.9557 39.656 19.5888 38.9898C18.2219 38.3236 17.0252 37.3544 16.09 36.156L8.73284 28.804C8.26361 28.3351 8 27.6991 8 27.036C8 26.3729 8.26361 25.7369 8.73284 25.268C9.20207 24.7991 9.83849 24.5357 10.5021 24.5357C11.1657 24.5357 11.8021 24.7991 12.2713 25.268L13.202 26.198C13.7063 26.703 14.5819 26.476 14.8801 25.828C14.939 25.7011 14.9698 25.5629 14.9702 25.423V14C14.9702 13.337 15.2338 12.7011 15.703 12.2322C16.1721 11.7634 16.8085 11.5 17.472 11.5C18.1355 11.5 18.7718 11.7634 19.241 12.2322C19.7101 12.7011 19.9737 13.337 19.9737 14V19.778C19.9737 20.275 20.4841 20.613 20.9584 20.463C21.1059 20.4186 21.2355 20.3285 21.3284 20.2057C21.4214 20.083 21.473 19.9339 21.4758 19.78V10.5C21.4758 9.83696 21.7393 9.20107 22.2085 8.73223C22.6777 8.26339 23.314 8 23.9775 8C24.641 8 25.2774 8.26339 25.7465 8.73223C26.2157 9.20107 26.4793 9.83696 26.4793 10.5V19.78C26.4793 20.095 26.6954 20.368 26.9956 20.463C27.47 20.613 27.9803 20.275 27.9803 19.778V14.001C27.9803 13.338 28.2439 12.7021 28.7131 12.2332C29.1822 11.7644 29.8186 11.501 30.4821 11.501C31.1456 11.501 31.7819 11.7644 32.2511 12.2332C32.7202 12.7021 32.9838 13.338 32.9838 14.001V25.418C32.9842 25.561 33.0156 25.7023 33.0759 25.832Z" fill="#FD4848" />
  <path d="M31.9829 31C31.9829 31 28.3984 36 23.9773 36C19.5562 36 15.9717 31 15.9717 31C15.9717 31 19.5562 26 23.9773 26C28.3984 26 31.9829 31 31.9829 31Z" fill="#D5FF5C" />
  <path d="M27.7303 30.9999C27.7385 31.4975 27.6474 31.9916 27.4625 32.4537C27.2776 32.9157 27.0025 33.3363 26.6533 33.6911C26.3041 34.0458 25.8877 34.3275 25.4284 34.5198C24.9692 34.7121 24.4762 34.8112 23.9782 34.8112C23.4803 34.8112 22.9873 34.7121 22.528 34.5198C22.0687 34.3275 21.6524 34.0458 21.3031 33.6911C20.9539 33.3363 20.6788 32.9157 20.4939 32.4537C20.309 31.9916 20.218 31.4975 20.2261 30.9999C20.2422 30.0161 20.6445 29.078 21.3465 28.3879C22.0484 27.6979 22.9936 27.3112 23.9782 27.3112C24.9629 27.3112 25.9081 27.6979 26.61 28.3879C27.3119 29.078 27.7143 30.0161 27.7303 30.9999V30.9999Z" stroke="#FD4848" color="#FD4848" stroke-width="0.501" />
  <path d="M26.2282 30.9999C26.2346 31.2993 26.181 31.597 26.0707 31.8754C25.9604 32.1539 25.7956 32.4075 25.586 32.6215C25.3763 32.8355 25.126 33.0055 24.8498 33.1215C24.5735 33.2376 24.2768 33.2974 23.9772 33.2974C23.6775 33.2974 23.3808 33.2376 23.1046 33.1215C22.8283 33.0055 22.578 32.8355 22.3684 32.6215C22.1587 32.4075 21.9939 32.1539 21.8836 31.8754C21.7733 31.597 21.7198 31.2993 21.7261 30.9999C21.7385 30.4115 21.9811 29.8514 22.4019 29.4397C22.8227 29.028 23.3882 28.7974 23.9772 28.7974C24.5661 28.7974 25.1316 29.028 25.5524 29.4397C25.9732 29.8514 26.2158 30.4115 26.2282 30.9999V30.9999Z" stroke="#FD4848" stroke-width="0.501" />
  <path d="M29.23 31.0001C29.2396 31.6955 29.1108 32.386 28.8511 33.0313C28.5915 33.6766 28.206 34.2639 27.7173 34.7591C27.2285 35.2543 26.6462 35.6475 26.0041 35.9159C25.3619 36.1843 24.6728 36.3225 23.9768 36.3225C23.2808 36.3225 22.5917 36.1843 21.9496 35.9159C21.3075 35.6475 20.7251 35.2543 20.2364 34.7591C19.7476 34.2639 19.3622 33.6766 19.1025 33.0313C18.8428 32.386 18.714 31.6955 18.7236 31.0001C18.7427 29.6203 19.3045 28.3036 20.2876 27.3347C21.2707 26.3657 22.596 25.8225 23.9768 25.8225C25.3576 25.8225 26.6829 26.3657 27.666 27.3347C28.6491 28.3036 29.2109 29.6203 29.23 31.0001V31.0001Z" stroke="#FD4848" stroke-width="0.501" />
  <path d="M30.7311 31C30.742 31.8933 30.5753 32.7798 30.2408 33.6082C29.9062 34.4367 29.4105 35.1905 28.7822 35.826C28.1539 36.4615 27.4057 36.9661 26.5808 37.3104C25.7559 37.6548 24.8709 37.8322 23.9769 37.8322C23.0829 37.8322 22.1979 37.6548 21.373 37.3104C20.5481 36.9661 19.7999 36.4615 19.1716 35.826C18.5433 35.1905 18.0476 34.4367 17.713 33.6082C17.3785 32.7798 17.2118 31.8933 17.2227 31C17.2443 29.2241 17.9654 27.5284 19.2297 26.2802C20.4941 25.0321 22.1997 24.3322 23.9769 24.3322C25.7541 24.3322 27.4597 25.0321 28.7241 26.2802C29.9884 27.5284 30.7095 29.2241 30.7311 31Z" stroke="#FD4848" stroke-width="0.501" />
  <path d="M24.7281 31.0001C24.7318 31.1008 24.7151 31.2012 24.6791 31.2954C24.643 31.3895 24.5884 31.4755 24.5184 31.548C24.4484 31.6206 24.3644 31.6783 24.2716 31.7177C24.1788 31.7571 24.0789 31.7775 23.9781 31.7775C23.8772 31.7775 23.7774 31.7571 23.6845 31.7177C23.5917 31.6783 23.5078 31.6206 23.4378 31.548C23.3678 31.4755 23.3131 31.3895 23.2771 31.2954C23.241 31.2012 23.2244 31.1008 23.228 31.0001C23.2351 30.806 23.3173 30.6223 23.4571 30.4875C23.597 30.3528 23.7838 30.2775 23.9781 30.2775C24.1724 30.2775 24.3591 30.3528 24.499 30.4875C24.6389 30.6223 24.721 30.806 24.7281 31.0001V31.0001Z" stroke="#FD4848" stroke-width="0.501" />
  <path d="M23.9773 32C24.2427 32 24.4972 31.8946 24.6849 31.7071C24.8725 31.5196 24.978 31.2652 24.978 31C24.978 30.7348 24.8725 30.4804 24.6849 30.2929C24.4972 30.1054 24.2427 30 23.9773 30C23.7119 30 23.4573 30.1054 23.2697 30.2929C23.082 30.4804 22.9766 30.7348 22.9766 31C22.9766 31.2652 23.082 31.5196 23.2697 31.7071C23.4573 31.8946 23.7119 32 23.9773 32Z" fill="#FD4848" />
  <path d="M16.3322 31.061C16.3164 31.0411 16.3007 31.021 16.2852 31.001L16.3322 30.939C16.9763 30.1234 17.6956 29.3701 18.4807 28.689C19.9137 27.453 21.8571 26.251 23.9775 26.251C26.097 26.251 28.0404 27.453 29.4744 28.69C30.2595 29.3711 30.9788 30.1244 31.6229 30.94L31.6699 31L31.6229 31.061C30.9787 31.8765 30.2594 32.6298 29.4744 33.311C28.0404 34.547 26.097 35.75 23.9775 35.75C21.8571 35.75 19.9147 34.547 18.4807 33.31C17.6957 32.6292 16.9763 31.8762 16.3322 31.061V31.061Z" stroke="#D5FF5C" stroke-width="0.501" />
</svg>
  