<svg width="48" height="48" viewBox="0 0 48 48" fill="none" xmlns="http://www.w3.org/2000/svg">
<rect width="48" height="48" rx="24" fill="#2980FE"/>
<path d="M18.8796 21.0486H18.8849C18.8805 21.0148 18.8787 20.9806 18.8796 20.9465V21.0486Z" fill="#29AEFF"/>
<path d="M29.5565 22.0687H23.647V32.7478C23.6469 32.8677 23.6704 32.9864 23.7162 33.0972C23.7619 33.208 23.8291 33.3086 23.9138 33.3934C23.9985 33.4781 24.099 33.5453 24.2097 33.5911C24.3203 33.6369 24.4389 33.6604 24.5587 33.6602H28.6448C28.7645 33.6604 28.8831 33.6369 28.9938 33.5911C29.1044 33.5453 29.205 33.4781 29.2897 33.3934C29.3743 33.3086 29.4415 33.208 29.4873 33.0972C29.5331 32.9864 29.5566 32.8677 29.5565 32.7478V22.0687Z" fill="white"/>
<path d="M20.794 14.4237H10.0152C9.89546 14.4236 9.77686 14.4471 9.6662 14.493C9.55554 14.5388 9.45499 14.606 9.37031 14.6908C9.28563 14.7756 9.21848 14.8763 9.1727 14.9871C9.12692 15.0978 9.10341 15.2166 9.10352 15.3365V19.0409C9.10341 19.1608 9.12692 19.2795 9.1727 19.3903C9.21848 19.5011 9.28563 19.6018 9.37031 19.6865C9.45499 19.7713 9.55554 19.8385 9.6662 19.8844C9.77686 19.9302 9.89546 19.9537 10.0152 19.9536H13.484V32.7747C13.4839 32.8947 13.5075 33.0134 13.5533 33.1243C13.5992 33.2351 13.6664 33.3358 13.7512 33.4206C13.8359 33.5053 13.9365 33.5725 14.0473 33.6184C14.158 33.6642 14.2767 33.6876 14.3965 33.6875H18.2791C18.3989 33.6875 18.5174 33.664 18.6281 33.6181C18.7387 33.5723 18.8392 33.505 18.9239 33.4203C19.0086 33.3355 19.0757 33.2348 19.1215 33.1241C19.1673 33.0133 19.1909 32.8946 19.1908 32.7747V19.9536H20.778C21.5102 19.9529 22.2122 19.6613 22.73 19.143C23.2478 18.6246 23.539 17.9218 23.5397 17.1887C23.5549 15.664 22.3173 14.4237 20.794 14.4237Z" fill="white"/>
<path d="M29.562 22.0687V29.5209C29.7667 29.5693 29.9751 29.607 30.1896 29.639C30.4952 29.6831 30.8032 29.7082 31.112 29.7144H31.1656V23.7869C30.7305 23.7575 30.3228 23.5636 30.0251 23.2446C29.7274 22.9256 29.5619 22.5053 29.562 22.0687Z" fill="url(#paint0_linear_225_929)"/>
<path d="M31.2833 14.4237C27.0666 14.4237 23.647 17.849 23.647 22.069C23.647 25.6983 26.1729 28.7371 29.5618 29.5212V22.069C29.5615 21.7469 29.6512 21.4313 29.8209 21.1577C29.9906 20.8842 30.2335 20.6637 30.522 20.5213C30.8105 20.3789 31.133 20.3203 31.4531 20.352C31.7732 20.3838 32.078 20.5047 32.3329 20.7011C32.5878 20.8974 32.7827 21.1613 32.8955 21.4629C33.0083 21.7645 33.0344 22.0917 32.9709 22.4074C32.9074 22.723 32.7568 23.0146 32.5362 23.249C32.3157 23.4834 32.0339 23.6512 31.723 23.7334C31.5796 23.7723 31.4318 23.7921 31.2833 23.7925V29.7146C31.4335 29.7146 31.5784 29.7089 31.723 29.7036C35.7349 29.4728 38.9196 26.1443 38.9196 22.069C38.9253 17.849 35.5036 14.4237 31.2833 14.4237Z" fill="white"/>
<path d="M31.2835 29.7142V23.7921C31.2425 23.7929 31.2014 23.7912 31.1606 23.7867V29.7142H31.2835Z" fill="white"/>
<defs>
<linearGradient id="paint0_linear_225_929" x1="31.2859" y1="25.8916" x2="29.5628" y2="25.8916" gradientUnits="userSpaceOnUse">
<stop stop-color="white"/>
<stop offset="0.97" stop-color="white" stop-opacity="0.32"/>
<stop offset="1" stop-color="white" stop-opacity="0.3"/>
</linearGradient>
</defs>
</svg>
