<svg width="724" height="724" viewBox="0 0 724 724" fill="none" xmlns="http://www.w3.org/2000/svg">
  <circle opacity="0.1" cx="362" cy="362" r="362" fill="url(#paint0_radial_6434_52757)" />
  <g opacity="0.4" filter="url(#filter0_i_6434_52757)">
    <circle cx="362" cy="362" r="170" fill="white" fill-opacity="0.04" />
  </g>
  <path d="M366.1 361.177L366.102 361.86L366.752 361.651L393.497 353.066L366.814 361.84L366.165 362.054L366.565 362.608L382.995 385.392L366.403 362.725L366 362.173L365.597 362.725L349.005 385.392L365.435 362.608L365.835 362.054L365.186 361.84L338.503 353.066L365.248 361.651L365.898 361.86L365.9 361.177L366 333.087L366.1 361.177Z" stroke="white" />
  <path d="M289.5 337.5L365 241L443 337.5V468L319.5 425.5L289.5 337.5Z" fill="url(#paint1_radial_6434_52757)" stroke="white" stroke-opacity="0.5" stroke-linecap="round" stroke-linejoin="round" />
  <defs>
    <filter id="filter0_i_6434_52757" x="192" y="192" width="360" height="340" filterUnits="userSpaceOnUse" color-interpolation-filters="sRGB">
      <feFlood flood-opacity="0" result="BackgroundImageFix" />
      <feBlend mode="normal" in="SourceGraphic" in2="BackgroundImageFix" result="shape" />
      <feColorMatrix in="SourceAlpha" type="matrix" values="0 0 0 0 0 0 0 0 0 0 0 0 0 0 0 0 0 0 127 0" result="hardAlpha" />
      <feOffset dx="20" />
      <feGaussianBlur stdDeviation="40" />
      <feComposite in2="hardAlpha" operator="arithmetic" k2="-1" k3="1" />
      <feColorMatrix type="matrix" values="0 0 0 0 1 0 0 0 0 1 0 0 0 0 1 0 0 0 0.1 0" />
      <feBlend mode="normal" in2="shape" result="effect1_innerShadow_6434_52757" />
    </filter>
    <radialGradient id="paint0_radial_6434_52757" cx="0" cy="0" r="1" gradientUnits="userSpaceOnUse" gradientTransform="translate(145.071 362) rotate(9.55228) scale(567.821)">
      <stop stop-color="white" stop-opacity="0.94" />
      <stop offset="0.193759" stop-color="white" stop-opacity="0.87" />
      <stop offset="1" stop-color="white" stop-opacity="0" />
    </radialGradient>
    <radialGradient id="paint1_radial_6434_52757" cx="0" cy="0" r="1" gradientUnits="userSpaceOnUse" gradientTransform="translate(366.25 354.5) rotate(90.0783) scale(183 180.833)">
      <stop />
      <stop offset="1" stop-color="#FF006B" />
    </radialGradient>
  </defs>
</svg>
  