<svg width="75" height="75" viewBox="0 0 75 75" fill="none" xmlns="http://www.w3.org/2000/svg">
  <path d="M44.2046 44.2046C34.1641 54.245 24.2933 62.535 16.4574 67.8226C12.536 70.4688 9.14573 72.3483 6.51142 73.3249C5.19275 73.8137 4.09136 74.0657 3.22291 74.0885C2.3546 74.1112 1.78028 73.9051 1.42466 73.5495C1.06903 73.1939 0.862942 72.6196 0.885708 71.7513C0.908474 70.8828 1.16043 69.7814 1.64929 68.4627C2.6259 65.8284 4.50539 62.4382 7.15156 58.5167C12.4392 50.6808 20.7291 40.81 30.7696 30.7696C40.8101 20.7291 50.6809 12.4392 58.5168 7.15153C62.4382 4.50536 65.8285 2.62586 68.4628 1.64926C69.7815 1.16039 70.8828 0.90844 71.7513 0.885673C72.6196 0.86291 73.1939 1.06899 73.5495 1.42462C73.9052 1.78025 74.1113 2.35456 74.0885 3.22288C74.0657 4.09133 73.8138 5.19271 73.3249 6.51139C72.3483 9.14569 70.4688 12.536 67.8226 16.4574C62.535 24.2933 54.2451 34.1641 44.2046 44.2046Z" stroke="white" />
</svg>
  