<svg width="24" height="24" viewBox="0 0 24 24" fill="none" xmlns="http://www.w3.org/2000/svg">
  <path fill-rule="evenodd" clip-rule="evenodd" d="M18.5407 5.70919C18.1502 5.31867 17.517 5.31867 17.1265 5.7092L12 10.8357L6.87348 5.70919C6.48295 5.31867 5.84979 5.31867 5.45926 5.70919C5.06874 6.09972 5.06874 6.73288 5.45926 7.12341L10.5858 12.2499L5.45926 17.3765C5.06874 17.767 5.06874 18.4001 5.45926 18.7907C5.84979 19.1812 6.48295 19.1812 6.87348 18.7907L12 13.6641L17.1265 18.7907C17.517 19.1812 18.1502 19.1812 18.5407 18.7907C18.9313 18.4001 18.9313 17.767 18.5407 17.3765L13.4142 12.2499L18.5407 7.12341C18.9313 6.73288 18.9313 6.09972 18.5407 5.70919Z" fill="white" />
</svg>
  