<svg width="68px" height="14px" viewBox="0 0 68 14" version="1.1" xmlns="http://www.w3.org/2000/svg"
    xmlns:xlink="http://www.w3.org/1999/xlink">
    <title>形状结合</title>
    <defs>
        <linearGradient x1="0%" y1="50%" x2="100%" y2="50%" id="linearGradient-1">
            <stop stop-color="#AA63A2" offset="0%"></stop>
            <stop stop-color="#DD5C92" offset="100%"></stop>
        </linearGradient>
    </defs>
    <g id="页面-1" stroke="none" stroke-width="1" fill="#ffffff" fill-rule="evenodd">
        <g id="画板备份-10" transform="translate(-749.000000, -59.000000)" fill="url(#linearGradient-1)">
            <path
                d="M782.10203,59.3288929 L784.817085,61.9998929 L814.928589,62 C816.033159,62 816.928589,62.8954305 816.928589,64 L816.928589,71 C816.928589,72.1045695 816.033159,73 814.928589,73 L751.517085,73 C750.412515,73 749.517085,72.1045695 749.517085,71 L749.517085,64 C749.517085,62.8954305 750.412515,62 751.517085,62 L779.405085,61.9998929 L782.10203,59.3288929 Z M784.54,64.69 C783.84,64.69 783.27,64.93 782.84,65.42 C782.4,65.9 782.19,66.52 782.19,67.3 C782.19,68.08 782.4,68.7 782.84,69.17 C783.27,69.64 783.84,69.88 784.54,69.88 C785.22,69.88 785.74,69.59 786.12,69.02 L786.12,69.82 C786.12,70.79 785.67,71.28 784.77,71.28 C784.35,71.28 784.04,71.21 783.85,71.09 C783.65,70.96 783.53,70.74 783.47,70.44 L782.41,70.44 C782.51,71.01 782.74,71.43 783.12,71.71 C783.5,71.98 784.05,72.12 784.77,72.12 C786.37,72.12 787.18,71.3 787.18,69.66 L787.18,64.83 L786.12,64.83 L786.12,65.52 C785.74,64.96 785.22,64.69 784.54,64.69 Z M805.26,64.69 C804.48,64.69 803.85,64.95 803.38,65.47 C802.91,65.98 802.68,66.63 802.68,67.42 C802.68,68.2 802.91,68.85 803.37,69.35 C803.85,69.87 804.48,70.14 805.26,70.14 C806.04,70.14 806.67,69.87 807.15,69.35 C807.61,68.85 807.84,68.2 807.84,67.42 C807.84,66.63 807.6,65.98 807.14,65.47 C806.67,64.95 806.04,64.69 805.26,64.69 Z M799.29,64.69 C798.51,64.69 797.88,64.95 797.41,65.47 C796.94,65.98 796.71,66.63 796.71,67.42 C796.71,68.2 796.94,68.85 797.4,69.35 C797.88,69.87 798.51,70.14 799.29,70.14 C800.07,70.14 800.7,69.87 801.18,69.35 C801.64,68.85 801.87,68.2 801.87,67.42 C801.87,66.63 801.63,65.98 801.17,65.47 C800.7,64.95 800.07,64.69 799.29,64.69 Z M793.64,64.69 C793.02,64.69 792.51,64.82 792.12,65.09 C791.73,65.35 791.54,65.72 791.54,66.19 C791.54,66.63 791.74,66.98 792.14,67.23 C792.38,67.39 792.81,67.54 793.42,67.68 C793.95,67.8 794.3,67.9 794.46,67.98 C794.76,68.12 794.92,68.32 794.92,68.57 C794.92,69.03 794.5,69.27 793.68,69.27 C793.28,69.27 793,69.2 792.82,69.07 C792.64,68.93 792.51,68.68 792.45,68.33 L791.41,68.33 C791.53,69.53 792.29,70.14 793.71,70.14 C795.24,70.14 796.01,69.59 796.01,68.5 C796.01,68.04 795.8,67.68 795.39,67.42 C795.11,67.24 794.67,67.07 794.08,66.93 C793.56,66.8 793.22,66.7 793.04,66.62 C792.76,66.49 792.62,66.34 792.62,66.16 C792.62,65.96 792.71,65.8 792.9,65.7 C793.06,65.6 793.3,65.56 793.62,65.56 C793.98,65.56 794.26,65.62 794.44,65.74 C794.61,65.85 794.73,66.04 794.81,66.32 L795.84,66.32 C795.72,65.23 794.98,64.69 793.64,64.69 Z M761.56,64.69 C760.78,64.69 760.15,64.95 759.68,65.47 C759.21,65.98 758.98,66.63 758.98,67.42 C758.98,68.2 759.21,68.85 759.67,69.35 C760.15,69.87 760.78,70.14 761.56,70.14 C762.34,70.14 762.97,69.87 763.45,69.35 C763.91,68.85 764.14,68.2 764.14,67.42 C764.14,66.63 763.9,65.98 763.44,65.47 C762.97,64.95 762.34,64.69 761.56,64.69 Z M755.9,64.69 C755.1,64.69 754.48,64.96 754.03,65.5 C753.61,66 753.4,66.64 753.4,67.42 C753.4,68.22 753.61,68.86 754.04,69.36 C754.48,69.88 755.09,70.14 755.88,70.14 C756.54,70.14 757.08,69.97 757.48,69.64 C757.88,69.3 758.15,68.78 758.27,68.09 L757.22,68.09 C757.12,68.87 756.68,69.27 755.89,69.27 C755.43,69.27 755.09,69.1 754.86,68.78 C754.61,68.45 754.49,67.99 754.49,67.41 C754.49,66.83 754.61,66.37 754.87,66.05 C755.12,65.72 755.46,65.56 755.9,65.56 C756.26,65.56 756.55,65.64 756.77,65.81 C756.99,65.97 757.13,66.23 757.2,66.58 L758.25,66.58 C758.15,65.94 757.89,65.46 757.49,65.14 C757.09,64.84 756.56,64.69 755.9,64.69 Z M770.88,64.69 C770.53,64.69 770.24,64.75 770,64.88 C769.74,65.01 769.49,65.24 769.26,65.56 C768.94,64.98 768.39,64.69 767.63,64.69 C767.11,64.69 766.63,64.92 766.21,65.4 L766.21,64.83 L765.15,64.83 L765.15,70 L766.21,70 L766.21,66.89 C766.21,66.53 766.31,66.22 766.53,65.97 C766.73,65.71 767.01,65.58 767.35,65.58 C768.05,65.58 768.41,65.98 768.41,66.8 L768.41,70 L769.47,70 L769.47,66.82 C769.47,66.44 769.57,66.13 769.77,65.91 C769.97,65.69 770.21,65.58 770.51,65.58 C770.91,65.58 771.21,65.67 771.39,65.87 C771.57,66.06 771.66,66.37 771.66,66.79 L771.66,70 L772.72,70 L772.72,66.61 C772.72,66.03 772.54,65.57 772.2,65.22 C771.85,64.86 771.41,64.69 770.88,64.69 Z M775.2,64.83 L774.14,64.83 L774.14,70 L775.2,70 L775.2,64.83 Z M779.25,64.69 C778.93,64.69 778.64,64.75 778.38,64.89 C778.12,65.02 777.89,65.21 777.69,65.47 L777.69,64.83 L776.63,64.83 L776.63,70 L777.69,70 L777.69,66.89 C777.73,66.47 777.88,66.14 778.12,65.9 C778.34,65.68 778.61,65.58 778.91,65.58 C779.71,65.58 780.12,66.02 780.12,66.9 L780.12,70 L781.18,70 L781.18,66.81 C781.18,65.39 780.53,64.69 779.25,64.69 Z M811.47,64.69 C811.15,64.69 810.86,64.75 810.6,64.89 C810.34,65.02 810.11,65.21 809.91,65.47 L809.91,64.83 L808.85,64.83 L808.85,70 L809.91,70 L809.91,66.89 C809.95,66.47 810.1,66.14 810.34,65.9 C810.56,65.68 810.83,65.58 811.13,65.58 C811.93,65.58 812.34,66.02 812.34,66.9 L812.34,70 L813.4,70 L813.4,66.81 C813.4,65.39 812.75,64.69 811.47,64.69 Z M761.56,65.56 C762.05,65.56 762.43,65.75 762.71,66.14 C762.95,66.47 763.07,66.9 763.07,67.42 C763.07,67.93 762.95,68.35 762.71,68.69 C762.43,69.07 762.05,69.27 761.56,69.27 C761.07,69.27 760.69,69.07 760.42,68.69 C760.18,68.36 760.07,67.94 760.07,67.42 C760.07,66.9 760.18,66.47 760.42,66.14 C760.69,65.75 761.07,65.56 761.56,65.56 Z M799.29,65.56 C799.78,65.56 800.16,65.75 800.44,66.14 C800.68,66.47 800.8,66.9 800.8,67.42 C800.8,67.93 800.68,68.35 800.44,68.69 C800.16,69.07 799.78,69.27 799.29,69.27 C798.8,69.27 798.42,69.07 798.15,68.69 C797.91,68.36 797.8,67.94 797.8,67.42 C797.8,66.9 797.91,66.47 798.15,66.14 C798.42,65.75 798.8,65.56 799.29,65.56 Z M805.26,65.56 C805.75,65.56 806.13,65.75 806.41,66.14 C806.65,66.47 806.77,66.9 806.77,67.42 C806.77,67.93 806.65,68.35 806.41,68.69 C806.13,69.07 805.75,69.27 805.26,69.27 C804.77,69.27 804.39,69.07 804.12,68.69 C803.88,68.36 803.77,67.94 803.77,67.42 C803.77,66.9 803.88,66.47 804.12,66.14 C804.39,65.75 804.77,65.56 805.26,65.56 Z M784.7,65.55 C785.15,65.55 785.5,65.7 785.76,66.02 C786,66.33 786.13,66.76 786.13,67.3 C786.13,67.83 786,68.25 785.76,68.56 C785.5,68.86 785.15,69.01 784.7,69.01 C784.18,69.01 783.81,68.83 783.58,68.49 C783.38,68.2 783.28,67.8 783.28,67.3 C783.28,66.75 783.4,66.32 783.66,66.02 C783.9,65.7 784.25,65.55 784.7,65.55 Z M774.67,62.76 C774.46,62.76 774.29,62.82 774.15,62.96 C774.01,63.09 773.94,63.26 773.94,63.47 C773.94,63.67 774.01,63.85 774.15,63.99 C774.29,64.12 774.46,64.19 774.67,64.19 C774.87,64.19 775.05,64.12 775.19,63.99 C775.33,63.85 775.41,63.68 775.41,63.47 C775.41,63.26 775.34,63.09 775.2,62.96 C775.06,62.82 774.88,62.76 774.67,62.76 Z"
                id="形状结合"></path>
        </g>
    </g>
</svg>