<svg xmlns="http://www.w3.org/2000/svg" width="48" height="48" viewBox="0 0 48 48" fill="none">
  <rect width="48" height="48" rx="24" fill="white" />
  <path
    d="M14.6497 23.1811C14.6497 23.0025 14.685 22.8257 14.7536 22.6607C14.8222 22.4958 14.9226 22.3461 15.0492 22.2201C15.1758 22.0941 15.3261 21.9944 15.4913 21.9266C15.6566 21.8588 15.8336 21.8244 16.0122 21.8252L18.271 21.8326C18.6312 21.8326 18.9766 21.9757 19.2313 22.2303C19.486 22.485 19.629 22.8304 19.629 23.1906V31.7325C19.8834 31.6571 20.209 31.5767 20.5673 31.4923C20.8155 31.4339 21.0368 31.2934 21.1951 31.0935C21.3535 30.8936 21.4397 30.6461 21.4397 30.3911V19.7963C21.4397 19.4361 21.5828 19.0906 21.8374 18.8359C22.0921 18.5812 22.4375 18.4381 22.7977 18.438H25.0634C25.4236 18.4381 25.769 18.5812 26.0237 18.8359C26.2784 19.0906 26.4214 19.4361 26.4214 19.7963V29.63C26.4214 29.63 26.9882 29.4006 27.54 29.1676C27.7451 29.0808 27.9201 28.9357 28.0431 28.7501C28.1662 28.5646 28.2319 28.347 28.2321 28.1243V16.4011C28.2321 16.041 28.3751 15.6956 28.6297 15.441C28.8844 15.1863 29.2297 15.0432 29.5898 15.0431H31.8532C32.2131 15.0435 32.5582 15.1867 32.8126 15.4413C33.067 15.696 33.2098 16.0412 33.2098 16.4011V26.0548C35.1721 24.6327 37.1607 22.9222 38.7389 20.8656C38.9678 20.567 39.1193 20.2165 39.1799 19.8451C39.2404 19.4738 39.2081 19.0933 39.0858 18.7375C38.3553 16.6358 37.1941 14.7097 35.6765 13.0826C34.1589 11.4554 32.3183 10.163 30.2725 9.28799C28.2268 8.41299 26.0209 7.97468 23.796 8.00113C21.5711 8.02758 19.3763 8.51819 17.3519 9.44157C15.3275 10.3649 13.5181 11.7008 12.0396 13.3635C10.5611 15.0263 9.44603 16.9794 8.76567 19.0979C8.08531 21.2163 7.85468 23.4535 8.08855 25.6662C8.32241 27.8789 9.01562 30.0185 10.1238 31.9479C10.3169 32.2807 10.6009 32.5516 10.9426 32.7285C11.2843 32.9055 11.6693 32.9814 12.0526 32.9471C12.4807 32.9094 13.0138 32.8561 13.6476 32.7818C13.9234 32.7504 14.1781 32.6186 14.3631 32.4116C14.5481 32.2046 14.6505 31.9368 14.6507 31.6592V23.1811"
    fill="#21325B" />
  <path
    d="M14.6016 36.8801C16.9873 38.6157 19.8066 39.6574 22.7477 39.8901C25.6887 40.1228 28.6368 39.5374 31.2658 38.1986C33.8948 36.8598 36.1021 34.8198 37.6436 32.3043C39.1852 29.7888 40.0008 26.8959 40.0002 23.9457C40.0002 23.5766 39.9831 23.2133 39.9586 22.8511C34.1156 31.5656 23.3269 35.6397 14.6016 36.8801Z"
    fill="#979695" />
</svg>