<svg t="1683211269796" viewBox="0 0 1024 1024" version="1.1"
  xmlns="http://www.w3.org/2000/svg" p-id="3612" width="200" height="200">
  <path
    d="M648.533333 113.92a64 64 0 0 0-66.133333 4.053333l-296.96 203.093334H149.333333a64 64 0 0 0-64 64V640a64 64 0 0 0 64 64h136.106667l296.96 202.026667A64 64 0 0 0 682.666667 853.333333V170.666667a64 64 0 0 0-34.133334-56.746667zM256 618.666667H192a21.333333 21.333333 0 0 1-21.333333-21.333334v-170.666666a21.333333 21.333333 0 0 1 21.333333-21.333334h64zM768 362.666667a42.666667 42.666667 0 0 0-42.666667 42.666666v213.333334a42.666667 42.666667 0 0 0 85.333334 0V405.333333a42.666667 42.666667 0 0 0-42.666667-42.666666zM896 277.333333a42.666667 42.666667 0 0 0-42.666667 42.666667v384a42.666667 42.666667 0 0 0 85.333334 0V320a42.666667 42.666667 0 0 0-42.666667-42.666667z"
    p-id="3613" fill="#ffffff"></path>
</svg>