<svg xmlns="http://www.w3.org/2000/svg" width="95" height="26" viewBox="0 0 95 26" fill="none">
    <path d="M51.3701 15.6519V9.31982H54.1296C54.4167 9.31982 54.6803 9.37926 54.9205 9.49819C55.1665 9.61713 55.3774 9.77766 55.5532 9.97979C55.7349 10.1819 55.8725 10.4079 55.9663 10.6576C56.0659 10.9073 56.1157 11.163 56.1157 11.4246C56.1157 11.6921 56.0688 11.9508 55.975 12.2005C55.8872 12.4443 55.7583 12.6583 55.5884 12.8426C55.4185 13.0269 55.2193 13.1696 54.9908 13.2707L56.4145 15.6519H55.0787L53.7956 13.5293H52.5829V15.6519H51.3701ZM52.5829 12.4502H54.1032C54.2555 12.4502 54.3903 12.4056 54.5074 12.3164C54.6246 12.2213 54.7184 12.0965 54.7887 11.9419C54.859 11.7872 54.8941 11.6149 54.8941 11.4246C54.8941 11.2225 54.8531 11.047 54.7711 10.8984C54.6891 10.7438 54.5836 10.6219 54.4547 10.5327C54.3317 10.4436 54.1969 10.399 54.0504 10.399H52.5829V12.4502Z" fill="white"/>
    <path d="M61.7232 14.5728V15.6519H57.3906V9.31982H61.644V10.399H58.6034V11.924H61.231V12.9229H58.6034V14.5728H61.7232Z" fill="white"/>
    <path d="M62.8442 15.6519V9.31982H64.057V14.5728H67.2383V15.6519H62.8442Z" fill="white"/>
    <path d="M69.8484 9.31982H71.0785L73.3724 15.6519H72.1245L71.5444 14.0734H69.365L68.7938 15.6519H67.5459L69.8484 9.31982ZM71.3247 13.2083L70.4635 10.5952L69.5671 13.2083H71.3247Z" fill="white"/>
    <path d="M78.315 10.399H76.3201V15.6519H75.1165V10.399H73.1216V9.31982H78.315V10.399Z" fill="white"/>
    <path d="M79.2656 15.6519V9.31982H80.4785V15.6519H79.2656Z" fill="white"/>
    <path d="M84.619 15.6964C84.1616 15.6964 83.7457 15.6073 83.3711 15.4289C83.0022 15.2505 82.6826 15.0097 82.4129 14.7065C82.1496 14.3973 81.9441 14.0525 81.7979 13.672C81.6516 13.2855 81.5781 12.8901 81.5781 12.4858C81.5781 12.0636 81.6545 11.6623 81.8064 11.2818C81.9648 10.8953 82.1789 10.5535 82.4486 10.2562C82.7233 9.95295 83.0457 9.71515 83.4146 9.5427C83.7899 9.36433 84.2002 9.27515 84.6454 9.27515C85.0963 9.27515 85.5065 9.36733 85.8754 9.55162C86.2507 9.73591 86.5696 9.9827 86.8336 10.2919C87.0969 10.601 87.3024 10.9459 87.4486 11.3264C87.5949 11.7069 87.6684 12.0993 87.6684 12.5036C87.6684 12.9198 87.592 13.3211 87.4401 13.7076C87.2874 14.0881 87.074 14.43 86.7986 14.7333C86.5289 15.0306 86.2065 15.2654 85.8319 15.4378C85.4623 15.6103 85.0585 15.6964 84.619 15.6964ZM82.8089 12.4858C82.8089 12.7593 82.8495 13.0239 82.9316 13.2795C83.0136 13.5352 83.1307 13.7641 83.2833 13.9663C83.441 14.1625 83.6315 14.32 83.8541 14.4389C84.0831 14.5519 84.3407 14.6084 84.6275 14.6084C84.9208 14.6084 85.1812 14.549 85.4095 14.43C85.6385 14.3052 85.829 14.1416 85.981 13.9395C86.1337 13.7314 86.2478 13.5025 86.3235 13.2528C86.4055 12.9971 86.4469 12.7414 86.4469 12.4858C86.4469 12.2123 86.4027 11.9507 86.3149 11.701C86.2329 11.4453 86.113 11.2194 85.9546 11.0232C85.8026 10.821 85.6121 10.6634 85.3838 10.5505C85.1605 10.4316 84.9086 10.3721 84.6275 10.3721C84.3286 10.3721 84.0653 10.4345 83.837 10.5594C83.6144 10.6783 83.4267 10.8389 83.2741 11.041C83.1221 11.2431 83.0051 11.4691 82.923 11.7188C82.8467 11.9685 82.8089 12.2242 82.8089 12.4858Z" fill="white"/>
    <path d="M89.9868 11.5851V15.6519H88.7739V9.31982H89.7407L92.9663 13.4937V9.32874H94.1785V15.6519H93.1682L89.9868 11.5851Z" fill="white"/>
    <path fill-rule="evenodd" clip-rule="evenodd" d="M17.875 21.5312C17.875 20.6899 17.9218 19.818 18.3424 19.0894L18.3869 19.0122C18.9432 18.0488 19.9984 17.5172 21.0038 17.0411C22.5163 16.3249 23.5625 14.7846 23.5625 13C23.5625 11.2698 22.5792 9.76928 21.141 9.0267C20.1113 8.49508 19.0149 7.93529 18.4355 6.93164L18.321 6.73351C17.9304 6.05684 17.875 5.25005 17.875 4.46874C17.875 2.00072 15.8743 0 13.4063 0C10.9382 0 8.9375 2.00072 8.9375 4.46874C8.9375 6.14296 9.85817 7.6021 11.2208 8.36759C12.2737 8.95899 13.4134 9.54868 14.0173 10.5945L14.2028 10.9158C14.5628 11.5393 14.625 12.2799 14.625 13C14.625 13.6565 14.5577 14.3293 14.2294 14.8978L13.9708 15.3458C13.3411 16.4365 12.1549 17.0583 11.0801 17.7149C9.79517 18.4998 8.9375 19.9153 8.9375 21.5312C8.9375 23.9992 10.9382 26 13.4063 26C15.8743 26 17.875 23.9992 17.875 21.5312Z" fill="url(#paint0_linear_395_12106)"/>
    <path d="M28.0136 8.93746C25.5457 8.93746 23.5449 6.93676 23.5449 4.46874C23.5449 2.00072 25.5457 0 28.0136 0C30.4816 0 32.4824 2.00072 32.4824 4.46874C32.4824 6.93676 30.4816 8.93746 28.0136 8.93746Z" fill="#FFFEFE"/>
    <path d="M28.0312 26C25.5632 26 23.5625 23.9992 23.5625 21.5312C23.5625 19.0632 25.5632 17.0625 28.0312 17.0625C30.4992 17.0625 32.5 19.0632 32.5 21.5312C32.5 23.9992 30.4992 26 28.0312 26Z" fill="#FFFEFE"/>
    <path d="M38.7158 17.4992C36.2478 17.4992 34.2471 15.4986 34.2471 13.0305C34.2471 10.5625 36.2478 8.56177 38.7158 8.56177C41.1839 8.56177 43.1846 10.5625 43.1846 13.0305C43.1846 15.4986 41.1839 17.4992 38.7158 17.4992Z" fill="#FFFEFE"/>
    <path d="M4.46874 17.4993C2.00072 17.4993 0 15.4986 0 13.0306C0 10.5625 2.00072 8.56177 4.46874 8.56177C6.93673 8.56177 8.93746 10.5625 8.93746 13.0306C8.93746 15.4986 6.93673 17.4993 4.46874 17.4993Z" fill="#FFFEFE"/>
    <defs>
        <linearGradient id="paint0_linear_395_12106" x1="16.25" y1="26" x2="16.25" y2="0" gradientUnits="userSpaceOnUse">
            <stop stop-color="#B465DA"/>
            <stop offset="0.33" stop-color="#CF6CC9"/>
            <stop offset="0.66" stop-color="#EE609C"/>
            <stop offset="1" stop-color="#EE609C"/>
        </linearGradient>
    </defs>
</svg>