<svg width="132" height="37" viewBox="0 0 132 37" fill="none" xmlns="http://www.w3.org/2000/svg">
  <path d="M72.0002 20.9375V12.0625H75.8679C76.2702 12.0625 76.6397 12.1458 76.9764 12.3125C77.3213 12.4792 77.6169 12.7042 77.8633 12.9875C78.1178 13.2708 78.3108 13.5875 78.4422 13.9375C78.5818 14.2875 78.6516 14.6458 78.6516 15.0125C78.6516 15.3875 78.5859 15.75 78.4545 16.1C78.3313 16.4417 78.1507 16.7417 77.9125 17C77.6744 17.2583 77.3952 17.4583 77.075 17.6L79.0704 20.9375H77.1981L75.3998 17.9625H73.7V20.9375H72.0002ZM73.7 16.45H75.8309C76.0444 16.45 76.2333 16.3875 76.3975 16.2625C76.5617 16.1292 76.6931 15.9542 76.7917 15.7375C76.8902 15.5208 76.9395 15.2792 76.9395 15.0125C76.9395 14.7292 76.882 14.4833 76.767 14.275C76.6521 14.0583 76.5043 13.8875 76.3236 13.7625C76.1512 13.6375 75.9623 13.575 75.757 13.575H73.7V16.45Z" fill="white" />
  <path d="M86.5105 19.425V20.9375H80.4381V12.0625H86.3996V13.575H82.1378V15.7125H85.8207V17.1125H82.1378V19.425H86.5105Z" fill="white" />
  <path d="M88.082 20.9375V12.0625H89.7818V19.425H94.2406V20.9375H88.082Z" fill="white" />
  <path d="M97.8986 12.0625H99.6231L102.838 20.9375H101.089L100.276 18.725H97.2212L96.4206 20.9375H94.6715L97.8986 12.0625ZM99.9679 17.5125L98.7609 13.85L97.5045 17.5125H99.9679Z" fill="white" />
  <path d="M109.766 13.575H106.97V20.9375H105.282V13.575H102.486V12.0625H109.766V13.575Z" fill="white" />
  <path d="M111.098 20.9375V12.0625H112.798V20.9375H111.098Z" fill="white" />
  <path d="M118.601 21C117.96 21 117.377 20.875 116.852 20.625C116.334 20.375 115.887 20.0375 115.509 19.6125C115.14 19.1792 114.852 18.6958 114.647 18.1625C114.442 17.6208 114.339 17.0667 114.339 16.5C114.339 15.9083 114.446 15.3458 114.659 14.8125C114.881 14.2708 115.181 13.7917 115.558 13.375C115.944 12.95 116.396 12.6167 116.913 12.375C117.439 12.125 118.014 12 118.638 12C119.27 12 119.845 12.1292 120.362 12.3875C120.888 12.6458 121.335 12.9917 121.705 13.425C122.074 13.8583 122.362 14.3417 122.567 14.875C122.772 15.4083 122.875 15.9583 122.875 16.525C122.875 17.1083 122.768 17.6708 122.555 18.2125C122.341 18.7458 122.041 19.225 121.655 19.65C121.278 20.0667 120.826 20.3958 120.301 20.6375C119.783 20.8792 119.217 21 118.601 21ZM116.063 16.5C116.063 16.8833 116.121 17.2542 116.236 17.6125C116.351 17.9708 116.515 18.2917 116.729 18.575C116.95 18.85 117.217 19.0708 117.529 19.2375C117.849 19.3958 118.211 19.475 118.613 19.475C119.024 19.475 119.389 19.3917 119.709 19.225C120.03 19.05 120.296 18.8208 120.51 18.5375C120.723 18.2458 120.884 17.925 120.99 17.575C121.105 17.2167 121.163 16.8583 121.163 16.5C121.163 16.1167 121.101 15.75 120.978 15.4C120.863 15.0417 120.695 14.725 120.473 14.45C120.26 14.1667 119.993 13.9458 119.672 13.7875C119.36 13.6208 119.007 13.5375 118.613 13.5375C118.194 13.5375 117.825 13.625 117.505 13.8C117.193 13.9667 116.93 14.1917 116.716 14.475C116.503 14.7583 116.339 15.075 116.224 15.425C116.117 15.775 116.063 16.1333 116.063 16.5Z" fill="white" />
  <path d="M126.125 15.2375V20.9375H124.425V12.0625H125.78L130.3 17.9125V12.075H132V20.9375H130.584L126.125 15.2375Z" fill="white" />
  <path fill-rule="evenodd" clip-rule="evenodd" d="M25.0533 30.1781C25.0533 28.999 25.1187 27.7768 25.7083 26.7557L25.7708 26.6475C26.5504 25.2972 28.0294 24.5521 29.4386 23.8848C31.5585 22.881 33.0248 20.7222 33.0248 18.2208C33.0248 15.7958 31.6466 13.6927 29.6308 12.652C28.1876 11.9068 26.6509 11.1222 25.8388 9.71558L25.6784 9.4378C25.1309 8.48944 25.0533 7.35865 25.0533 6.26358C25.0533 2.80445 22.2491 0.000262789 18.7899 0.00026294C15.3308 0.000263092 12.5266 2.80445 12.5266 6.26358C12.5266 8.61011 13.817 10.6553 15.7269 11.7281C17.2026 12.5571 18.8 13.3835 19.6463 14.8493L19.9063 15.2996C20.4109 16.1736 20.4981 17.2117 20.4981 18.2208C20.4981 19.1411 20.4038 20.0839 19.9437 20.8809L19.5812 21.5087C18.6986 23.0375 17.0361 23.909 15.5297 24.8291C13.7287 25.9292 12.5266 27.9133 12.5266 30.1781C12.5266 33.6372 15.3308 36.4414 18.7899 36.4414C22.2491 36.4414 25.0533 33.6372 25.0533 30.1781Z" fill="url(#paint0_linear_5238_315)" />
  <path d="M39.2887 12.5266C35.8295 12.5266 33.0254 9.72246 33.0254 6.26332C33.0254 2.80418 35.8295 -4.24982e-07 39.2887 -2.73778e-07C42.7478 -1.22575e-07 45.552 2.80418 45.552 6.26332C45.552 9.72246 42.7478 12.5266 39.2887 12.5266Z" fill="white" />
  <path d="M39.2887 36.4407C35.8295 36.4407 33.0254 33.6365 33.0254 30.1774C33.0254 26.7182 35.8295 23.9141 39.2887 23.9141C42.7478 23.9141 45.552 26.7182 45.552 30.1774C45.552 33.6365 42.7478 36.4407 39.2887 36.4407Z" fill="white" />
  <path d="M51.815 23.9153C48.3559 23.9153 45.5517 21.1111 45.5517 17.652C45.5517 14.1929 48.3559 11.3887 51.815 11.3887C55.2742 11.3887 58.0784 14.1929 58.0784 17.652C58.0784 21.1111 55.2742 23.9153 51.815 23.9153Z" fill="white" />
  <path d="M6.26329 23.9153C2.80415 23.9153 -3.28499e-05 21.1111 -3.26987e-05 17.652C-3.25475e-05 14.1929 2.80415 11.3887 6.26329 11.3887C9.72243 11.3887 12.5266 14.1929 12.5266 17.652C12.5266 21.1111 9.72243 23.9153 6.26329 23.9153Z" fill="white" />
  <defs>
    <linearGradient id="paint0_linear_5238_315" x1="22.7757" y1="36.4414" x2="22.7757" y2="0.000262766" gradientUnits="userSpaceOnUse">
      <stop stop-color="#B8CBB8" />
      <stop stop-color="#B8CBB8" />
      <stop stop-color="#B465DA" />
      <stop offset="0.33" stop-color="#CF6CC9" />
      <stop offset="0.66" stop-color="#EE609C" />
      <stop offset="1" stop-color="#EE609C" />
    </linearGradient>
  </defs>
</svg>
  