<svg width="20" height="20" viewBox="0 0 20 20" fill="none" xmlns="http://www.w3.org/2000/svg">
  <path fill-rule="evenodd" clip-rule="evenodd" d="M15.0411 16.2196C13.6414 17.2845 11.8946 17.9167 10.0001 17.9167C5.39771 17.9167 1.66675 14.1857 1.66675 9.58333C1.66675 4.98096 5.39771 1.25 10.0001 1.25C14.6025 1.25 18.3334 4.98096 18.3334 9.58333C18.3334 11.6907 17.5512 13.6153 16.2613 15.0827L18.506 17.3274C18.8314 17.6528 18.8314 18.1805 18.506 18.5059C18.1806 18.8314 17.6529 18.8314 17.3275 18.5059L15.0411 16.2196ZM16.6667 9.58333C16.6667 13.2652 13.682 16.25 10.0001 16.25C6.31818 16.25 3.33341 13.2652 3.33341 9.58333C3.33341 5.90143 6.31818 2.91667 10.0001 2.91667C13.682 2.91667 16.6667 5.90143 16.6667 9.58333Z" fill="#8994A1" />
</svg>
  