<svg width="23" height="20" viewBox="0 0 23 20" xmlns="http://www.w3.org/2000/svg">
<path fill-rule="evenodd" clip-rule="evenodd" d="M17.4684 19.1737C18.8104 19.7608 19.3136 18.5306 19.3136 18.5306L22.8644 0.693089C22.8364 -0.509127 21.2148 0.217794 21.2148 0.217794L1.33631 8.01822C1.33631 8.01822 0.385721 8.35372 0.469597 8.94085C0.553472 9.52798 1.30835 9.80756 1.30835 9.80756L6.31292 11.4851C6.31292 11.4851 7.82268 16.4337 8.13023 17.3843C8.40981 18.3069 8.66144 18.3349 8.66144 18.3349C8.94102 18.4467 9.19265 18.251 9.19265 18.251L12.4358 15.3154L17.4684 19.1737ZM18.3351 3.85236C18.3351 3.85236 19.0341 3.43298 19.0061 3.85236C19.0061 3.85236 19.1179 3.90827 18.7545 4.29969C18.419 4.63519 10.5067 11.7367 9.4443 12.6872C9.36042 12.7432 9.30451 12.827 9.30451 12.9389L8.99696 15.567C8.94105 15.8466 8.57759 15.8745 8.49371 15.6229L7.17966 11.3173C7.12374 11.1495 7.17966 10.9538 7.34741 10.842L18.3351 3.85236Z" fill="black"/>
</svg>
