<svg width="23" height="19" viewBox="0 0 23 19" xmlns="http://www.w3.org/2000/svg">
<path d="M20.6819 4.74235C20.6819 4.95652 20.6819 5.17069 20.6819 5.35427C20.6819 11.6876 15.9254 19 7.25524 19C4.57592 19 2.10733 18.2045 0 16.8583C0.361257 16.8889 0.752618 16.9195 1.11387 16.9195C3.31152 16.9195 5.35864 16.1546 6.98429 14.8696C4.90707 14.839 3.16099 13.4316 2.58901 11.5346C2.89005 11.5958 3.16099 11.6264 3.49215 11.6264C3.91361 11.6264 4.33508 11.5652 4.72644 11.4428C2.5589 11.0145 0.933246 9.08696 0.933246 6.76167C0.933246 6.73108 0.933246 6.73108 0.933246 6.70048C1.56545 7.06763 2.28796 7.2818 3.07068 7.3124C1.80628 6.45572 0.963351 4.98712 0.963351 3.30435C0.963351 2.41707 1.20419 1.59098 1.59555 0.887279C3.91361 3.79388 7.40576 5.69082 11.3194 5.90499C11.2291 5.56844 11.199 5.17069 11.199 4.80354C11.199 2.14171 13.3063 0 15.9254 0C17.2801 0 18.5144 0.581321 19.3573 1.49919C20.4411 1.28502 21.4346 0.887279 22.3678 0.336554C22.0065 1.4686 21.2539 2.38647 20.2906 2.99839C21.2539 2.87601 22.1571 2.63124 23 2.23349C22.3979 3.21256 21.6152 4.06924 20.6819 4.74235Z" fill="black"/>
</svg>
