<svg width="48" height="48" viewBox="0 0 48 48" fill="none" xmlns="http://www.w3.org/2000/svg">
  <path d="M48 24C48 37.2548 37.2548 48 24 48C10.7452 48 0 37.2548 0 24C0 10.7452 10.7452 0 24 0C37.2548 0 48 10.7452 48 24Z" fill="white" />
  <path d="M39 29.5804C39 30.3679 38.7923 31.1415 38.3979 31.8231C38.0034 32.5048 37.4362 33.0703 36.7534 33.4627L26.231 39.509C25.5522 39.8991 24.783 40.1044 24.0001 40.1044C23.2172 40.1044 22.448 39.8991 21.7693 39.509L11.2469 33.4627C10.564 33.0703 9.99671 32.5048 9.60223 31.8232C9.20774 31.1416 9.00001 30.3679 9 29.5804V17.524C8.99999 16.7364 9.20768 15.9628 9.60213 15.2812C9.99658 14.5996 10.5638 14.034 11.2466 13.6417L21.769 7.59531C22.4478 7.20526 23.217 7 23.9999 7C24.7828 7 25.552 7.20526 26.2307 7.59531L36.7531 13.6417C37.436 14.034 38.0033 14.5995 38.3978 15.2812C38.7923 15.9628 39 16.7364 39 17.524V29.5804Z" fill="#1D86CC" />
  <path d="M22.7032 9.27864L12.3151 15.2786C11.9202 15.5067 11.5922 15.8346 11.3643 16.2296C11.1363 16.6246 11.0164 17.0726 11.0166 17.5286L11.0231 29.5419C11.0234 29.9972 11.1434 30.4444 11.3711 30.8387C11.5987 31.2331 11.9261 31.5606 12.3203 31.7885L22.7204 37.8006C23.1152 38.0285 23.563 38.1485 24.0189 38.1485C24.4748 38.1485 24.9226 38.0285 25.3174 37.8006L35.7055 31.8024C36.1004 31.5744 36.4283 31.2464 36.6563 30.8514C36.8842 30.4564 37.0041 30.0084 37.004 29.5524L36.9975 17.5392C36.9972 17.0839 36.8771 16.6367 36.6495 16.2424C36.4218 15.8481 36.0945 15.5206 35.7003 15.2927L25.3002 9.28043C24.9054 9.05249 24.4575 8.9325 24.0017 8.9325C23.5458 8.9325 23.098 9.05249 22.7032 9.28043V9.27864Z" fill="white" />
  <path d="M19.2739 33.7401C19.2899 33.6618 19.325 33.5887 19.376 33.5272C22.4834 28.2543 25.5915 22.9817 28.7 17.7093C28.7432 17.6361 28.7832 17.5609 28.8199 17.4953C28.7926 17.4476 28.7615 17.4575 28.7351 17.4575C27.4071 17.4622 26.079 17.4707 24.75 17.4691C24.6932 17.4681 24.6375 17.4845 24.5903 17.5161C24.5431 17.5477 24.5067 17.5931 24.4861 17.646C23.4843 19.3027 22.4812 20.959 21.4769 22.6148C19.3493 26.1251 17.2214 29.6353 15.0934 33.1454C15.0746 33.1766 15.0549 33.207 15.0381 33.239C15.0004 33.3116 14.9577 33.323 14.8814 33.2787C14.5511 33.0837 14.2173 32.8949 13.8665 32.6932L23.3367 17.5047C23.3163 17.4429 23.2744 17.4584 23.2422 17.4572C22.7346 17.442 22.2269 17.4201 21.7198 17.4156C21.0075 17.3945 20.2975 17.5089 19.6278 17.7528C19.018 17.9786 18.4997 18.3994 18.1534 18.9499C16.4231 21.6487 14.6862 24.3433 12.9428 27.0337C12.9155 27.0763 12.8864 27.1179 12.8582 27.16C12.7583 27.16 12.7731 27.0776 12.7639 27.0201C12.7551 26.9334 12.753 26.8462 12.7577 26.7593C12.7577 23.7834 12.768 20.8076 12.7485 17.832C12.7328 17.5756 12.7945 17.3204 12.9255 17.0995C13.0565 16.8785 13.2508 16.7019 13.4832 16.5926C15.7715 15.2881 18.045 13.9567 20.3259 12.6389C21.3439 12.0508 22.365 11.4682 23.3756 10.8678C23.5657 10.7402 23.7895 10.6721 24.0184 10.6721C24.2473 10.6721 24.4711 10.7402 24.6612 10.8678C26.5194 11.9583 28.3941 13.0235 30.2619 14.0986C31.6707 14.9098 33.0803 15.7196 34.4904 16.5279C34.5914 16.5855 34.6896 16.647 34.791 16.7037C34.9559 16.7913 35.0923 16.9243 35.184 17.0869C35.2758 17.2496 35.319 17.4351 35.3087 17.6216C35.3113 20.8586 35.3113 24.0956 35.3087 27.3326C35.3152 27.4123 35.3066 27.4924 35.2831 27.5688C35.1712 27.6769 35.1307 27.5556 35.09 27.4981C34.9221 27.2619 34.7714 27.0131 34.6153 26.7687C33.3658 24.8127 32.112 22.8593 30.8541 20.9086C30.4314 20.2493 30.0034 19.5926 29.5852 18.9306C29.4876 18.7761 29.4699 18.7739 29.3723 18.9398C28.7412 20.0075 28.1106 21.0755 27.4803 22.1437C27.4457 22.2031 27.4308 22.2719 27.4377 22.3403C27.4446 22.4086 27.473 22.4731 27.5187 22.5243C28.0384 23.3628 28.5572 24.2019 29.0749 25.0416L31.7295 29.3357C32.0877 29.916 32.4465 30.4957 32.8059 31.075C32.8726 31.1527 32.9102 31.2512 32.9121 31.3535C32.8402 31.4963 32.6904 31.5364 32.5657 31.6013C32.361 31.7491 32.1361 31.8665 31.8979 31.9499C31.7694 31.9179 31.7239 31.8019 31.663 31.707C30.8411 30.4251 30.0298 29.1366 29.2133 27.8516C28.3735 26.5307 27.5378 25.2049 26.6944 23.8853C26.5863 23.716 26.569 23.7149 26.4674 23.8853C25.7337 25.1196 25.0102 26.3596 24.2747 27.5925C24.2371 27.6503 24.2186 27.7185 24.2219 27.7873C24.2251 27.8562 24.25 27.9223 24.2929 27.9763C25.2835 29.5031 26.2514 31.0434 27.2315 32.5779C27.5049 33.0055 27.7802 33.4316 28.0487 33.8623C28.101 33.9461 28.1727 34.0296 28.1252 34.1428C27.8679 34.343 27.5903 34.5156 27.2969 34.6578C26.3814 35.1904 25.4654 35.7224 24.549 36.2536C24.4022 36.3484 24.2311 36.3988 24.0564 36.3988C23.8817 36.3988 23.7107 36.3484 23.5639 36.2536C22.214 35.4727 20.8618 34.6953 19.507 33.9214C19.4137 33.8843 19.3328 33.8214 19.2739 33.7401Z" fill="#2D374B" />
  <path d="M35.2434 27.6013C35.2454 27.5214 35.2494 27.4417 35.2494 27.362C35.2494 24.1323 35.2505 20.9027 35.2526 17.6733C35.2641 17.4775 35.2181 17.2825 35.1203 17.1124C35.0226 16.9423 34.8773 16.8045 34.7023 16.7158C31.3109 14.7716 27.922 12.823 24.5356 10.87C24.3831 10.7708 24.2053 10.7178 24.0234 10.7173C23.8414 10.7168 23.6633 10.7689 23.5103 10.8673C21.6297 11.9603 19.7467 13.0505 17.8613 14.1378C16.3486 15.0135 14.836 15.8894 13.3235 16.7655C13.1619 16.8493 13.028 16.9779 12.9378 17.136C12.8476 17.2941 12.805 17.4748 12.8151 17.6565C12.8228 20.7555 12.8272 23.8544 12.8282 26.9534C12.8282 27.0223 12.8003 27.0991 12.8605 27.16C12.5023 27.7564 12.1087 28.3296 11.7315 28.9132C11.5425 29.2055 11.3528 29.4972 11.1623 29.7884C11.1319 29.835 11.0968 29.8779 11.0365 29.961C11.032 29.8634 11.0273 29.8094 11.0273 29.7557C11.0273 25.669 11.0281 21.5823 11.0296 17.4955C11.0196 17.042 11.1348 16.5944 11.3624 16.202C11.59 15.8095 11.9213 15.4874 12.32 15.2708C13.6351 14.4899 14.9676 13.7382 16.2914 12.9711C17.4084 12.3244 18.5215 11.6726 19.6378 11.0247C20.6788 10.4202 21.7093 9.79763 22.7681 9.22606C23.1736 9.00027 23.6322 8.8875 24.0962 8.89956C24.5602 8.91161 25.0124 9.04803 25.4056 9.29457C26.2564 9.77726 27.1035 10.2689 27.9518 10.7565C28.7497 11.2158 29.5476 11.6753 30.3454 12.1352C31.0806 12.5585 31.816 12.9813 32.5517 13.4037C33.2811 13.8226 34.0106 14.2414 34.7401 14.6599C35.0607 14.8441 35.381 15.0286 35.6996 15.2162C36.0513 15.4152 36.3538 15.6909 36.5844 16.0227C36.815 16.3545 36.9679 16.7341 37.0318 17.1331C37.0468 17.2483 37.0515 17.3647 37.0456 17.4808C37.0456 21.5021 37.0461 25.5235 37.0472 29.545C37.0493 29.9271 36.9668 30.305 36.8058 30.6515C36.6447 30.9979 36.4089 31.3045 36.1154 31.5492C35.9479 31.6769 35.7679 31.7873 35.5781 31.8785C34.4885 32.5142 33.3974 33.1473 32.3047 33.7777C31.1437 34.4493 29.9821 35.1199 28.82 35.7893C27.7034 36.4361 26.5881 37.0854 25.4739 37.737C25.1965 37.9237 24.8843 38.0524 24.556 38.1156C24.0106 38.2221 23.4454 38.1502 22.9441 37.9105C22.3884 37.6126 21.8471 37.2893 21.2992 36.9754C20.5636 36.5533 19.8283 36.1304 19.0933 35.7067C18.8857 35.5873 18.6779 35.4685 18.47 35.3505C18.3937 35.307 18.3415 35.2629 18.4011 35.1633C18.676 34.7028 18.9467 34.2396 19.2202 33.7782C19.2299 33.7614 19.2545 33.7535 19.2722 33.7412C19.5271 33.8603 19.7739 33.996 20.011 34.1476C21.2114 34.8341 22.41 35.524 23.6067 36.2173C23.745 36.3048 23.9056 36.3503 24.0692 36.3486C24.2327 36.3469 24.3923 36.2978 24.5287 36.2075C25.6653 35.5405 26.8078 34.8832 27.9478 34.2226C28.0042 34.1899 28.062 34.1601 28.1193 34.1292C28.2268 33.9919 28.3703 33.8872 28.5339 33.8267C29.5638 33.2366 30.586 32.6348 31.6156 32.0462C31.7016 31.9972 31.779 31.9215 31.891 31.9343L32.8998 31.3499C32.9614 31.221 33.0928 31.1793 33.2029 31.1158C33.7105 30.8227 34.2133 30.5216 34.7253 30.2379C34.8735 30.1599 34.996 30.0409 35.0782 29.895C35.1603 29.7491 35.1987 29.5825 35.1885 29.4154C35.1937 28.9018 35.1885 28.388 35.191 27.8742C35.1732 27.7799 35.1919 27.6823 35.2434 27.6013Z" fill="#96BEDC" />
  <path d="M35.2447 27.601C35.2474 28.2387 35.2615 28.8772 35.2472 29.5139C35.2511 29.6631 35.2137 29.8104 35.1391 29.9396C35.0644 30.0689 34.9555 30.1749 34.8243 30.246C34.1822 30.6096 33.5517 30.9937 32.9038 31.3475C32.6461 30.8773 32.3486 30.4296 32.0669 29.9728C30.6043 27.6021 29.14 25.2327 27.674 22.8646C27.5862 22.7227 27.5058 22.5754 27.4078 22.4413C27.3758 22.4028 27.3584 22.3544 27.3584 22.3044C27.3584 22.2544 27.3758 22.2059 27.4078 22.1675C27.7577 21.5822 28.1018 20.9937 28.4482 20.406L29.4095 18.7752C29.4266 18.7365 29.4565 18.7048 29.4943 18.6857C29.6616 18.9434 29.8301 19.2033 29.9985 19.4634C31.0098 21.0381 32.021 22.6127 33.0319 24.1873C33.7174 25.2557 34.4029 26.3241 35.0882 27.3926C35.1258 27.4719 35.1791 27.5428 35.2447 27.601Z" fill="#28A0F0" />
  <path d="M31.8949 31.9318C31.4773 32.2058 31.0345 32.4388 30.6042 32.693C29.824 33.1517 29.0388 33.6019 28.2559 34.0555C28.2112 34.0808 28.1664 34.1045 28.1232 34.1289C28.1133 34.0565 28.0821 33.9886 28.0336 33.9339C27.3365 32.8382 26.6392 31.7428 25.9419 30.6476C25.3689 29.7482 24.7943 28.8497 24.218 27.9521C24.179 27.9055 24.1564 27.8474 24.1536 27.7867C24.1509 27.726 24.1682 27.6661 24.2028 27.6162C24.9731 26.3189 25.7402 25.0197 26.5041 23.7185C26.5222 23.6885 26.5367 23.6535 26.5817 23.6439C26.6444 23.658 26.6596 23.7207 26.6894 23.7675C28.0775 25.9539 29.4656 28.1405 30.8536 30.3272C31.1489 30.7926 31.4429 31.2592 31.74 31.7238C31.7778 31.8024 31.8302 31.8731 31.8944 31.9322L31.8949 31.9318Z" fill="#28A0F0" />
</svg>
  