<svg width="48" height="48" viewBox="0 0 48 48" fill="none" xmlns="http://www.w3.org/2000/svg">
<circle cx="24" cy="24" r="24" fill="white"/>
<path d="M15.7675 24L12.4 27.3988L9 24L12.3988 20.6012L15.7675 24ZM24 15.7675L29.8 21.5675L33.2 18.17L27.3688 12.3988L24 9L20.6012 12.3988L14.8012 18.1988L18.1988 21.5988L24 15.7663V15.7675ZM35.6012 20.6012L32.2038 24L35.6012 27.3988L39 24L35.6012 20.6012ZM24 32.2025L18.17 26.4025L14.8 29.8L20.6 35.6L24 39L27.3988 35.6012L33.17 29.8013L29.8013 26.4012L24 32.205V32.2025ZM24 27.3688L27.3988 23.9713L24 20.6L20.6012 24L24 27.3688Z" fill="#FCD535"/>
</svg>
