<svg width="54" height="54" viewBox="0 0 54 54" fill="none" xmlns="http://www.w3.org/2000/svg">
  <rect width="54" height="54" fill="#0090FF" />
  <mask id="mask0_117_695" style="mask-type:alpha" maskUnits="userSpaceOnUse" x="7" y="7" width="40" height="40">
    <path fill-rule="evenodd" clip-rule="evenodd" d="M7 7H47V47H7V7Z" fill="white" />
  </mask>
  <g mask="url(#mask0_117_695)">
    <path fill-rule="evenodd" clip-rule="evenodd" d="M27 47C16 47 7 38 7 26.9C7.1 15.9 16 6.89997 27.1 6.99997C38.1 7.09997 47 16 47 27.2C46.9 38.1 38 47 27 47Z" fill="#0090FF" />
    <path fill-rule="evenodd" clip-rule="evenodd" d="M28.9004 24.6L28.3004 27.8L34.0004 28.6L33.6004 30.1L28.0004 29.3C27.6004 30.6 27.4004 32 26.9004 33.2C26.4004 34.6 25.9004 36 25.3004 37.3C24.5004 39 23.1004 40.2 21.2004 40.5C20.1004 40.7 18.9004 40.6 18.0004 39.9C17.7004 39.7 17.4004 39.3 17.4004 39C17.4004 38.6 17.6004 38.1 17.9004 37.9C18.1004 37.8 18.6004 37.9 18.9004 38C19.2004 38.3 19.5004 38.7 19.7004 39.1C20.3004 39.9 21.1004 40 21.9004 39.4C22.8004 38.6 23.3004 37.5 23.6004 36.4C24.2004 34 24.8004 31.7 25.3004 29.3V28.9L20.0004 28.1L20.2004 26.6L25.7004 27.4L26.4004 24.3L20.7004 23.4L20.9004 21.8L26.8004 22.6C27.0004 22 27.1004 21.5 27.3004 21C27.8004 19.2 28.3004 17.4 29.5004 15.8C30.7004 14.2 32.1004 13.2 34.2004 13.3C35.1004 13.3 36.0004 13.6 36.6004 14.3C36.7004 14.4 36.9004 14.6 36.9004 14.8C36.9004 15.2 36.9004 15.7 36.6004 16C36.2004 16.3 35.7004 16.2 35.3004 15.8C35.0004 15.5 34.8004 15.2 34.5004 14.9C33.9004 14.1 33.0004 14 32.3004 14.7C31.8004 15.2 31.3004 15.9 31.0004 16.6C30.3004 18.7 29.8004 20.9 29.1004 23.1L34.6004 23.9L34.2004 25.4L28.9004 24.6Z" fill="white" />
  </g>
</svg>
  