<svg width="54" height="54" viewBox="0 0 54 54" fill="none" xmlns="http://www.w3.org/2000/svg">
  <mask id="mask0_117_659" style="mask-type:alpha" maskUnits="userSpaceOnUse" x="0" y="0" width="54" height="54">
    <rect width="54" height="54" fill="#FE0420" />
  </mask>
  <g mask="url(#mask0_117_659)">
    <rect width="54" height="54" fill="#FF0420" />
  </g>
  <path d="M27 54C41.9117 54 54 41.9117 54 27C54 12.0883 41.9117 0 27 0C12.0883 0 0 12.0883 0 27C0 41.9117 12.0883 54 27 54Z" fill="#FF0420" />
  <path d="M16.9335 36C14.8962 36 13.2271 35.5333 11.926 34.6C10.642 33.65 10 32.3 10 30.55C10 30.1833 10.0428 29.7333 10.1284 29.1999C10.351 28 10.6677 26.5583 11.0786 24.875C12.2427 20.2917 15.2472 18 20.0921 18C21.4103 18 22.5916 18.2166 23.6359 18.6499C24.6803 19.0666 25.502 19.7 26.1011 20.55C26.7003 21.3833 27 22.3833 27 23.5499C27 23.8999 26.9572 24.3416 26.8715 24.875C26.6147 26.3583 26.3065 27.8 25.947 29.1999C25.3479 31.4833 24.3121 33.1917 22.8398 34.325C21.3675 35.4416 19.3988 36 16.9335 36ZM17.293 32.4C18.2518 32.4 19.0649 32.125 19.7326 31.575C20.4174 31.025 20.9053 30.1833 21.1963 29.05C21.59 27.4833 21.8897 26.1166 22.0952 24.95C22.1636 24.6 22.1978 24.2417 22.1978 23.8749C22.1978 22.3583 21.3846 21.5999 19.7583 21.5999C18.7995 21.5999 17.9778 21.8749 17.293 22.4249C16.6254 22.975 16.146 23.8167 15.855 24.95C15.5468 26.0666 15.2386 27.4333 14.9306 29.05C14.862 29.3833 14.8278 29.7333 14.8278 30.0999C14.8278 31.6333 15.6496 32.4 17.293 32.4Z" fill="white" />
  <path d="M28.5139 36C28.3307 36 28.1891 35.94 28.0892 35.8199C28.0059 35.6828 27.981 35.5286 28.0143 35.3571L31.4614 18.6429C31.4946 18.4543 31.5862 18.3 31.7361 18.1799C31.886 18.06 32.0442 18 32.2107 18H38.8552C40.7036 18 42.1856 18.3943 43.3013 19.1828C44.4338 19.9715 45 21.1114 45 22.6028C45 23.0313 44.9501 23.4771 44.8501 23.9399C44.4338 25.9114 43.5929 27.3686 42.3273 28.3114C41.0783 29.2543 39.363 29.7257 37.1815 29.7257H33.8094L32.6604 35.3571C32.627 35.5457 32.5354 35.6999 32.3856 35.8199C32.2357 35.94 32.0775 36 31.9111 36H28.5139ZM37.3565 26.1771C38.0558 26.1771 38.6636 25.9799 39.1799 25.5857C39.7127 25.1914 40.0625 24.6257 40.229 23.8885C40.2789 23.5971 40.3039 23.34 40.3039 23.1171C40.3039 22.6199 40.1624 22.2428 39.8793 21.9857C39.5961 21.7114 39.1133 21.5743 38.4305 21.5743H35.433L34.4838 26.1771H37.3565Z" fill="white" />
</svg>
  