<svg width="54" height="54" viewBox="0 0 54 54" fill="none" xmlns="http://www.w3.org/2000/svg">
<rect width="54" height="54" fill="white"/>
<path d="M27.2226 17.5018C30.3104 17.5018 32.8134 16.0461 32.8134 14.2502C32.8134 12.4544 30.3104 10.9987 27.2226 10.9987C24.1349 10.9987 21.6318 12.4544 21.6318 14.2502C21.6318 16.0461 24.1349 17.5018 27.2226 17.5018Z" fill="#E6007A"/>
<path d="M27.2226 42.0015C30.3104 42.0015 32.8134 40.5457 32.8134 38.7499C32.8134 36.9541 30.3104 35.4983 27.2226 35.4983C24.1349 35.4983 21.6318 36.9541 21.6318 38.7499C21.6318 40.5457 24.1349 42.0015 27.2226 42.0015Z" fill="#E6007A"/>
<path d="M19.431 22.0056C20.9748 19.3316 20.9648 16.4356 19.4086 15.5371C17.8524 14.6386 15.3393 16.0779 13.7954 18.7518C12.2515 21.4258 12.2616 24.3218 13.8178 25.2203C15.374 26.1188 17.8871 24.6796 19.431 22.0056Z" fill="#E6007A"/>
<path d="M40.6469 34.2532C42.1907 31.5793 42.1816 28.6837 40.6264 27.7858C39.0712 26.8879 36.559 28.3277 35.0151 31.0016C33.4713 33.6756 33.4804 36.5712 35.0356 37.4691C36.5908 38.367 39.103 36.9272 40.6469 34.2532Z" fill="#E6007A"/>
<path d="M19.4096 37.4628C20.9658 36.5643 20.9758 33.6682 19.4319 30.9943C17.8881 28.3203 15.375 26.881 13.8188 27.7795C12.2625 28.678 12.2525 31.5741 13.7964 34.2481C15.3402 36.922 17.8533 38.3613 19.4096 37.4628Z" fill="#E6007A"/>
<path d="M40.6274 25.2141C42.1825 24.3162 42.1917 21.4206 40.6479 18.7467C39.104 16.0727 36.5917 14.6329 35.0366 15.5308C33.4814 16.4287 33.4722 19.3243 35.0161 21.9982C36.56 24.6722 39.0722 26.112 40.6274 25.2141Z" fill="#E6007A"/>
</svg>
